<svg width="24" height="24" viewBox="0 0 24 24" fill="none" xmlns="http://www.w3.org/2000/svg">
<path d="M16.5414 2.93765C14.9818 2.0035 13.1981 1.50985 11.3802 1.50928C9.86765 1.50839 8.37444 1.8489 7.01184 2.50543C5.64923 3.16196 4.45239 4.11758 3.51052 5.30106C2.56866 6.48453 1.90606 7.86533 1.57213 9.34053C1.23819 10.8157 1.24153 12.3473 1.5819 13.821C1.92227 15.2947 2.59088 16.6726 3.5379 17.852C4.48492 19.0313 5.68592 19.9817 7.05137 20.6323C8.41682 21.2829 9.91151 21.6169 11.424 21.6094C12.6864 21.6031 13.934 21.3591 15.1022 20.8925L20.5954 21.8072C21.2091 21.9094 21.7108 21.3213 21.5131 20.7313L20.1079 16.5371C20.8907 15.1641 21.3403 13.6228 21.4158 12.0377C21.5023 10.2218 21.0947 8.41651 20.2363 6.814C19.3779 5.21149 18.1009 3.87181 16.5414 2.93765Z" stroke="#ffffff" stroke-width="2.475" stroke-linecap="round" stroke-linejoin="round"/>
</svg>
