<svg width="24" height="24" viewBox="0 0 24 24" fill="none" xmlns="http://www.w3.org/2000/svg">
<path d="M2.05426 18.9802C2.23119 20.5641 3.49733 21.8296 5.08053 22.0128C6.8695 22.2197 8.71807 22.4238 10.6094 22.4238C12.5008 22.4238 14.3494 22.2197 16.1384 22.0128C17.7216 21.8296 18.9877 20.5641 19.1646 18.9802C19.3635 17.1997 19.5554 15.36 19.5554 13.4778C19.5554 11.5957 19.3635 9.75599 19.1646 7.97551C18.9877 6.3916 17.7216 5.12608 16.1384 4.94294C14.3494 4.736 12.5008 4.53186 10.6094 4.53186C8.71807 4.53186 6.8695 4.736 5.08053 4.94294C3.49734 5.12608 2.23119 6.3916 2.05426 7.97551C1.85537 9.75599 1.66345 11.5957 1.66345 13.4778C1.66345 15.36 1.85537 17.1997 2.05426 18.9802Z" fill="none"/>
<path d="M9.29357 4.56256C7.85923 4.62717 6.45236 4.78421 5.08054 4.94289C3.49734 5.12603 2.23119 6.39156 2.05426 7.97546C1.85537 9.75594 1.66345 11.5956 1.66345 13.4778C1.66345 15.36 1.85537 17.1997 2.05426 18.9802C2.23119 20.5641 3.49733 21.8296 5.08053 22.0127C6.8695 22.2197 8.71807 22.4238 10.6094 22.4238C12.5008 22.4238 14.3494 22.2197 16.1384 22.0127C17.7216 21.8296 18.9877 20.5641 19.1646 18.9802C19.3077 17.6994 19.4472 16.388 19.5142 15.0522" stroke="#F3F5F7" stroke-width="2.475" stroke-linecap="round"/>
<path d="M17.0791 2.73537L10.999 9.63427L10.1661 13.5519C10.0321 14.1823 10.6891 14.7787 11.3045 14.5853L15.2031 13.3596L21.4832 6.75154C22.5262 5.65401 22.3443 3.81831 21.0817 2.70158C19.8487 1.611 18.0567 1.62613 17.0791 2.73537Z" stroke="#F3F5F7" stroke-width="2.475" stroke-linecap="round" stroke-linejoin="round"/>
</svg>
